<?xml version="1.0" standalone="no"?>
<!DOCTYPE svg PUBLIC "-//W3C//DTD SVG 20010904//EN"
 "http://www.w3.org/TR/2001/REC-SVG-20010904/DTD/svg10.dtd">
<svg version="1.0" xmlns="http://www.w3.org/2000/svg"
 width="474.000000pt" height="497.000000pt" viewBox="0 0 474.000000 497.000000"
 preserveAspectRatio="xMidYMid meet">
<metadata>
Created by potrace 1.16, written by Peter Selinger 2001-2019
</metadata>
<g transform="translate(0.000000,497.000000) scale(0.100000,-0.100000)"
fill="#000000" stroke="none">
<path d="M2075 4715 c-673 -92 -1273 -468 -1634 -1025 -79 -121 -199 -364
-246 -499 -93 -261 -129 -478 -128 -771 0 -376 70 -674 238 -1016 230 -468
580 -818 1048 -1047 361 -177 678 -245 1087 -234 364 10 637 78 969 243 401
199 703 479 940 873 151 251 258 546 308 846 25 155 25 525 0 680 -96 585
-396 1108 -836 1459 -176 141 -442 289 -666 372 -138 50 -336 99 -483 118
-147 19 -463 20 -597 1z m534 -666 c156 -36 311 -121 437 -241 142 -134 238
-291 286 -463 19 -69 22 -105 22 -260 0 -155 -3 -191 -22 -260 -95 -342 -390
-627 -732 -706 -136 -32 -350 -29 -484 6 -160 42 -315 133 -442 260 -134 134
-222 287 -266 461 -18 73 -22 117 -22 244 1 135 4 168 27 252 70 262 249 486
498 622 110 60 195 85 384 110 58 8 231 -6 314 -25z m-1102 -1848 c470 -458
1229 -467 1708 -19 l77 72 61 -13 c284 -57 495 -324 596 -754 50 -209 52 -191
-28 -294 -246 -317 -651 -584 -1041 -683 -521 -133 -1064 -58 -1512 209 -232
139 -440 326 -590 531 l-26 35 23 115 c32 163 69 278 131 409 108 228 228 346
416 412 114 40 125 38 185 -20z"/>
</g>
</svg>
