<?xml version="1.0" standalone="no"?>
<!DOCTYPE svg PUBLIC "-//W3C//DTD SVG 20010904//EN"
 "http://www.w3.org/TR/2001/REC-SVG-20010904/DTD/svg10.dtd">
<svg version="1.0" xmlns="http://www.w3.org/2000/svg"
 width="512.000000pt" height="512.000000pt" viewBox="0 0 512.000000 512.000000"
 preserveAspectRatio="xMidYMid meet">
<metadata>
Created by potrace 1.16, written by Peter Selinger 2001-2019
</metadata>
<g transform="translate(0.000000,512.000000) scale(0.100000,-0.100000)"
fill="#000000" stroke="none">
<path d="M2355 4904 c-117 -12 -272 -38 -364 -60 -321 -79 -645 -237 -906
-442 -90 -71 -296 -277 -367 -367 -254 -322 -420 -709 -485 -1125 -25 -161
-25 -539 0 -700 65 -416 231 -803 485 -1125 71 -90 277 -296 367 -367 301
-237 657 -398 1030 -467 685 -127 1379 42 1920 467 90 71 296 277 367 367 254
322 420 709 485 1125 25 161 25 539 0 700 -65 416 -231 803 -485 1125 -71 90
-277 296 -367 367 -319 251 -709 420 -1115 483 -101 16 -476 28 -565 19z m480
-450 c717 -99 1304 -581 1534 -1259 22 -66 53 -178 68 -250 26 -123 28 -144
28 -385 0 -241 -2 -262 -28 -385 -174 -815 -783 -1390 -1601 -1510 -142 -21
-409 -21 -547 0 -716 106 -1275 553 -1523 1218 -79 212 -116 425 -116 676 0
326 61 592 202 875 360 726 1154 1135 1983 1020z"/>
<path d="M2446 3930 c-68 -27 -132 -92 -152 -153 -21 -63 -15 -157 14 -213 23
-45 84 -104 134 -130 54 -28 162 -30 230 -4 70 26 142 100 159 163 15 57 6
154 -19 203 -23 45 -83 104 -134 130 -51 27 -171 29 -232 4z"/>
<path d="M2300 3178 c-105 -53 -140 -202 -75 -315 27 -45 107 -93 157 -93 l28
0 0 -529 0 -529 -122 -4 c-147 -4 -186 -18 -229 -86 -72 -113 -35 -273 75
-323 38 -17 73 -19 480 -19 428 0 441 1 484 21 26 13 54 38 70 62 24 37 27 49
27 133 0 88 -1 94 -31 131 -51 64 -101 83 -221 83 l-103 0 0 668 c0 628 -2
669 -19 707 -22 47 -64 89 -104 104 -16 6 -103 11 -201 11 -158 0 -175 -2
-216 -22z"/>
</g>
</svg>
