<svg version="1.1" id="Layer_1" xmlns="http://www.w3.org/2000/svg" xmlns:xlink="http://www.w3.org/1999/xlink" x="0px" y="0px"
	 width="100%" viewBox="0 0 425 398" enable-background="new 0 0 425 398" xml:space="preserve">
<path fill="#F9FAFC" opacity="1.000000" stroke="none" 
	d="
M289.000000,399.000000 
	C192.695770,399.000000 96.891541,399.000000 1.043655,399.000000 
	C1.043655,266.402740 1.043655,133.805450 1.043655,1.104088 
	C142.554184,1.104088 284.108459,1.104088 425.831360,1.104088 
	C425.831360,133.666489 425.831360,266.333221 425.831360,399.000000 
	C380.472168,399.000000 334.986084,399.000000 289.000000,399.000000 
M231.716339,42.803127 
	C208.334564,40.375801 185.605255,43.435860 163.485077,51.156563 
	C81.175453,79.885468 36.885677,171.822800 65.714836,254.002777 
	C94.858078,337.078064 182.736603,381.107025 266.543945,354.094116 
	C338.646576,330.853882 385.456757,259.848572 375.756744,181.616104 
	C371.391602,146.410461 356.506683,115.764786 331.576172,90.373985 
	C304.373993,62.669598 271.381866,46.679783 231.716339,42.803127 
z"/>
<path fill="#010101" opacity="1.000000" stroke="none" 
	d="
M232.174362,42.823978 
	C271.381866,46.679783 304.373993,62.669598 331.576172,90.373985 
	C356.506683,115.764786 371.391602,146.410461 375.756744,181.616104 
	C385.456757,259.848572 338.646576,330.853882 266.543945,354.094116 
	C182.736603,381.107025 94.858078,337.078064 65.714836,254.002777 
	C36.885677,171.822800 81.175453,79.885468 163.485077,51.156563 
	C185.605255,43.435860 208.334564,40.375801 232.174362,42.823978 
M219.857834,275.418365 
	C232.913925,272.718994 233.510101,268.823578 233.383286,259.132629 
	C233.071960,235.343506 233.295105,211.547516 233.272430,187.754333 
	C233.266312,181.318954 231.520645,178.652924 225.387146,176.807404 
	C222.260193,175.866531 218.838455,175.273041 215.600143,175.448547 
	C204.074493,176.073105 200.951599,179.597137 200.951599,191.129410 
	C200.951599,215.089020 201.104202,239.050293 200.842453,263.007050 
	C200.778580,268.853271 203.391403,272.241425 208.341812,273.895905 
	C211.728180,275.027679 215.471909,275.090210 219.857834,275.418365 
M232.657730,146.805527 
	C232.853561,143.447617 233.990433,139.803543 233.072250,136.784409 
	C230.082230,126.952599 217.585541,122.875916 207.921936,128.092957 
	C197.447922,133.747513 197.016068,146.699341 207.087692,153.113327 
	C215.817398,158.672714 225.893524,156.399384 232.657730,146.805527 
z"/>
<path fill="#F8F9FB" opacity="1.000000" stroke="none" 
	d="
M219.456848,275.524536 
	C215.471909,275.090210 211.728180,275.027679 208.341812,273.895905 
	C203.391403,272.241425 200.778580,268.853271 200.842453,263.007050 
	C201.104202,239.050293 200.951599,215.089020 200.951599,191.129410 
	C200.951599,179.597137 204.074493,176.073105 215.600143,175.448547 
	C218.838455,175.273041 222.260193,175.866531 225.387146,176.807404 
	C231.520645,178.652924 233.266312,181.318954 233.272430,187.754333 
	C233.295105,211.547516 233.071960,235.343506 233.383286,259.132629 
	C233.510101,268.823578 232.913925,272.718994 219.456848,275.524536 
z"/>
<path fill="#F6F7F8" opacity="1.000000" stroke="none" 
	d="
M232.440338,147.123962 
	C225.893524,156.399384 215.817398,158.672714 207.087692,153.113327 
	C197.016068,146.699341 197.447922,133.747513 207.921936,128.092957 
	C217.585541,122.875916 230.082230,126.952599 233.072250,136.784409 
	C233.990433,139.803543 232.853561,143.447617 232.440338,147.123962 
z"/>
</svg>