<?xml version="1.0" standalone="no"?>
<!DOCTYPE svg PUBLIC "-//W3C//DTD SVG 20010904//EN"
 "http://www.w3.org/TR/2001/REC-SVG-20010904/DTD/svg10.dtd">
<svg version="1.0" xmlns="http://www.w3.org/2000/svg"
 width="512.000000pt" height="512.000000pt" viewBox="0 0 512.000000 512.000000"
 preserveAspectRatio="xMidYMid meet">
<metadata>
Created by potrace 1.16, written by Peter Selinger 2001-2019
</metadata>
<g transform="translate(0.000000,512.000000) scale(0.100000,-0.100000)"
fill="#000000" stroke="none">
<path d="M1605 4693 c-197 -25 -359 -105 -501 -247 -135 -135 -212 -280 -243
-460 -6 -33 -11 -186 -11 -341 0 -281 0 -281 25 -332 38 -75 89 -107 179 -111
91 -4 146 22 194 92 l32 48 0 237 c0 130 5 269 10 309 19 145 104 263 238 329
l76 38 1165 0 1166 0 55 -22 c120 -49 213 -150 250 -271 20 -63 20 -97 20
-1402 0 -1305 0 -1339 -20 -1402 -37 -121 -130 -222 -250 -271 l-55 -22 -1166
0 -1165 0 -76 38 c-134 66 -219 184 -238 329 -5 40 -10 179 -10 309 l0 235
-29 46 c-18 27 -48 57 -75 73 -41 24 -54 27 -120 23 -92 -4 -143 -35 -181
-111 -25 -51 -25 -51 -25 -332 0 -155 5 -308 11 -341 31 -180 108 -325 243
-460 119 -119 233 -184 406 -231 61 -17 146 -18 1260 -18 l1195 0 85 23 c313
83 539 309 622 622 l23 85 0 1405 0 1405 -23 85 c-82 311 -304 534 -617 622
l-80 23 -1170 1 c-643 1 -1183 0 -1200 -3z"/>
<path d="M2278 3406 c-91 -33 -139 -94 -146 -186 -7 -98 6 -119 171 -287 l150
-153 -939 -2 -939 -3 -47 -28 c-69 -40 -103 -102 -103 -187 0 -85 34 -147 103
-187 l47 -28 939 -3 939 -2 -150 -153 c-166 -168 -178 -189 -171 -288 10 -135
141 -225 276 -189 43 12 78 44 400 364 195 193 362 368 373 388 26 50 26 146
0 196 -11 20 -176 193 -368 384 -287 286 -356 350 -392 363 -53 18 -94 19
-143 1z"/>
</g>
</svg>
